%%{init: {"theme":"base","htmlLabels":false,"themeVariables":{"fontFamily":"Open Sans, Arial, sans-serif","primaryColor":"#9e1b32","primaryTextColor":"#ffffff","primaryBorderColor":"#9e1b32","lineColor":"#333e48","textColor":"#333e48"}}}%%
classDiagram
    class Diagram {
      +String source
      +renderSvg()
    }
    class Fragment {
      +String id
      +unfold()
    }
    class Video {
      +compose()
    }
    Diagram --> Fragment
    Fragment --> Video
